<?xml version="1.0" encoding="UTF-8"?>
<svg id="Layer_1" xmlns="http://www.w3.org/2000/svg" version="1.1" viewBox="0 0 72.6 39.3">
  <!-- Generator: Adobe Illustrator 30.2.1, SVG Export Plug-In . SVG Version: 2.1.1 Build 1)  -->
  <defs>
    <style>
      .st0 {
        fill: #fff;
      }
    </style>
  </defs>
  <path class="st0" d="M17.2,6.7c-2.9-.2-6.1,2.3-7.2,5.7-.6,1.8-.5,3.6.4,4.8.7,1,1.7,1.5,2.9,1.6h0c2.9.2,6.1-2.3,7.2-5.7.6-1.8.5-3.6-.4-4.8-.6-1-1.7-1.5-2.9-1.6ZM19.8,13.1c-1,3-3.7,5.2-6.2,5-1.1,0-1.9-.5-2.5-1.3-.7-1.1-.8-2.6-.3-4.3,1-3,3.7-5.2,6.2-5h0c0,0,0,0,0,0,1.1,0,1.9.5,2.5,1.3.7,1.1.8,2.6.3,4.3Z"/>
  <polygon class="st0" points="19.6 22.6 19.1 28.2 10.4 24.7 10.3 24.7 10 24.8 17.3 32.3 18 32.1 12.2 26.2 19.6 29 19.8 28.9 20.3 24 26.6 30.8 27.4 30.7 19.8 22.6 19.6 22.6"/>
  <polygon class="st0" points="31.1 14.8 30.5 14.1 28.5 21 26.2 18.4 28.1 11.5 27.5 10.8 25.3 18.6 31.9 26.2 32.1 25.3 29.1 21.8 31.1 14.8"/>
  <path class="st0" d="M61.7,17.3c-.7.6-1.6,1.3-3.1,1.4-2.8.1-5.6-1.9-6.6-4.5-.5-1.3-.4-2.5.2-3.3.6-.8,1.5-1.3,2.8-1.4,1.3,0,2.5.2,3.9,1h.1c0,0,.3-.6.3-.6h-.1c-1.3-.7-2.6-1.1-3.8-1.1s-.4,0-.5,0c-1.5,0-2.8.7-3.5,1.8-.7,1.1-.8,2.4-.2,3.9,1.1,2.8,4.2,5,7.2,5.1s.3,0,.5,0c1.5,0,2.7-.6,3.6-1.6h0c0-.1-.7-.7-.7-.7h0Z"/>
  <path class="st0" d="M56.5,24.2c-.3,0-.5,0-.8,0-2.5,0-5.2,1.4-6.3,3.6-.6,1.2-.7,2.4-.2,3.3.5,1,1.5,1.7,2.9,1.9.3,0,.5,0,.8,0,2.5,0,5.2-1.4,6.3-3.6.6-1.2.7-2.4.2-3.3-.5-1-1.5-1.7-2.9-1.9ZM58.5,29.3c-.9,1.9-3.2,3.2-5.3,3.1-.2,0-.5,0-.7,0-1.1-.2-2-.7-2.4-1.5-.4-.8-.3-1.8.2-2.9.9-1.9,3.2-3.2,5.3-3.1.2,0,.5,0,.7,0,1.1.2,2,.7,2.4,1.5.4.8.3,1.8-.2,2.9Z"/>
  <path class="st0" d="M46.3,16.8l-3.8,4.2.4.7,3.1-3.4c.4,2.3,0,4.2-1.5,5.8-.7.8-1.6,1.2-2.4,1.2h0c-1.1,0-2.2-.9-2.9-2.3-1.2-2.5-.9-5.9.9-7.8.8-.9,1.7-1.3,2.8-1.4h.1s0-.9,0-.9h-.1c-1.2,0-2.2.6-3.2,1.6-2,2.2-2.5,6.2-1.1,9.1.8,1.6,2,2.5,3.4,2.6,1.1,0,2.1-.5,3-1.5,1.8-2,2.4-4.8,1.6-7.6l-.2-.3Z"/>
  <path class="st0" d="M68.9,22.1c-.3-.9-5-11.1-6-13.2-.9-1.9-2.3-2.1-2.4-2.1-.1,0-10.5-2-14.1-2.5-2.2-.3-3.3.9-3.7,1.3h0s-4.7,6.4-4.7,6.4c0,0-.8,1.1-1.1,1.6s-.3.1-.4,0L26.6,2.1h0c-.2-.2-.6-.3-.9-.4-.2,0-.3,0-.3,0h0c-.1,0-11.3,2.9-14,3.6-1.3.3-1.9,1.5-1.9,1.6-.2.5-5.3,12.9-5.7,14-.4,1.1.1,2,.3,2.1,0,0,0,0,0,0h0s0,0,0,0c0,0,0,0,0,0l11.2,11.5s.7.7,1.8.7c.3,0,.5,0,.8,0,1.7-.4,13.3-2.1,13.4-2.1.2,0,1.4-.3,1.7-1,0,0,0-.2,0-.2l2.5-8.3c0-.1.2-.1.2,0l1.1,3.1s0,0,0,0c0,0,0,0,0,0,.8,2.3,1.7,5,1.7,5,.1.4.9,2.7,2.2,2.7h0s0,0,0,0c0,0,0,0,0,0l16.8,1.1c0,0,.9,0,1.7-1.1.6-.8,7.1-8,9-10.2,0,0,0,0,0,0,.1-.1.2-.3.4-.4,0,0,0-.1.1-.1,0,0,0-.1,0-.2.2-.4.3-.9,0-1.5ZM5.2,22.5c-.7.1-.9-.2-.9-.2-.1-.2-.3-.7,0-1.3.4-1,5.4-13.3,5.7-13.9,0,0,0,0,0,0,0-.1.5-.9,1.4-1.1,2.7-.7,13.4-3.4,14-3.6,0,0,.5,0,.7.2.1.2.1.5,0,.9-.5,1.9-3.9,13.9-4.4,15.7h0c-.9.2-4.1.9-16.4,3.2,0,0,0,0,0,0ZM31.4,32.4c-.1,0-.2,0-.3,0-.5,0-11.7,1.7-13.4,2.1-1,.2-1.7-.3-1.9-.5,0,0,0,0,0,0l-10.2-10.5s-.2-.3,0-.3c0,0,0,0,.1,0,2.3-.4,13.1-2.5,15.8-3,.2,0,.4,0,.5.2,2.1,2.3,8.7,9.7,9.9,11.1.1.2.4.7-.5,1ZM32.5,30.6c0,.1-.2.2-.3,0-1.7-1.9-7.9-8.8-9.8-10.9,0,0,0,0,0-.1.3-1.2,3.8-13.5,4.4-15.7,0,0,.2,0,.3,0l9,10.4c.1.1.1.3,0,.4l-1.6,2.2s0,0,0,0c-.2.2-.8,1.1-.4,2.1.2.5.5,1.4,1,2.7s0,.3,0,.4l-2.5,8.4ZM41.1,33.6c-.1,0-.3.1-.4.1h0c-.5,0-1.2-1.2-1.5-2.1,0-.1-3.9-11.1-4.5-12.8-.3-.8.3-1.4.3-1.4l8.2-11.3s0,0,0,0c0,0,0,0,0,0,0,0,0,0,0,0,.3-.2.7-.1.8.2,1,2.5,4.5,10.9,5.4,13.2.7,2,.2,2.6-.7,3.9-1.8,2.6-6.8,9.4-7.9,10.3ZM67,24.6c-2.4,2.7-7.9,8.8-8.4,9.5-.4.6-.8.7-1,.8,0,0-.1,0-.2,0l-14.8-1c-.4,0-.5-.3-.3-.7,2.3-2.8,6.9-9.2,7.1-9.5,0,0,.5-.7.9-1.5.3-.4.4-.8.8-.7l15.4,2.1c.4,0,.6.6.3.9ZM67.6,23.1l-16.3-2.2c-.4,0-.6-.5-.7-.8-.1-.3-.2-.5-.3-.8-1-2.8-5.7-13.8-5.7-13.9v-.2c.4-.2,1-.3,1.7-.2,3.6.5,14,2.5,14.1,2.5,0,0,1.1.2,1.8,1.7,1.1,2.4,5.7,12.4,6,13.2,0,0,0,0,0,0,.1.4-.2.7-.6.7Z"/>
</svg>